<svg width="585" height="585" viewBox="0 0 585 585" fill="none" xmlns="http://www.w3.org/2000/svg">
<rect width="585" height="585" rx="292.5" fill="#E30A17"/>
<path d="M346.621 292L457 256.148L388.778 350.015V233.985L457 327.852L346.621 292ZM354.146 357.237C340.008 379.574 318.997 396.715 294.274 406.082C269.551 415.449 242.454 416.536 217.06 409.178C191.666 401.82 169.349 386.415 153.468 365.283C137.587 344.15 129 318.433 129 292C129 265.567 137.587 239.85 153.468 218.717C169.349 197.585 191.666 182.18 217.06 174.822C242.454 167.464 269.551 168.551 294.274 177.918C318.997 187.285 340.008 204.426 354.146 226.763C340.944 212.075 323.596 201.737 304.393 197.113C285.191 192.49 265.037 193.798 246.594 200.866C228.151 207.934 212.286 220.428 201.095 236.699C189.903 252.971 183.912 272.253 183.912 292C183.912 311.747 189.903 331.029 201.095 347.301C212.286 363.572 228.151 376.066 246.594 383.134C265.037 390.202 285.191 391.51 304.393 386.887C323.596 382.263 340.944 371.925 354.146 357.237Z" fill="white"/>
</svg>
